<?xml version="1.0" standalone="no"?>
<!DOCTYPE svg PUBLIC "-//W3C//DTD SVG 20010904//EN"
 "http://www.w3.org/TR/2001/REC-SVG-20010904/DTD/svg10.dtd">
<svg version="1.0" xmlns="http://www.w3.org/2000/svg"
 width="848.000000pt" height="700.000000pt" viewBox="0 0 848.000000 1200.000000"
 preserveAspectRatio="xMidYMid meet">

<g transform="translate(0.000000,1200.000000) scale(0.100000,-0.100000)"
fill="#9b6c14" stroke="none">
<path d="M2765 10310 c12 -40 32 -76 122 -218 134 -213 293 -429 483 -657 178
-215 267 -333 415 -555 167 -250 237 -357 252 -383 16 -29 141 -167 228 -252
40 -38 110 -115 157 -170 47 -55 123 -141 169 -191 163 -177 203 -246 248
-429 16 -66 59 -207 95 -312 53 -157 78 -215 138 -317 40 -69 93 -162 118
-207 59 -109 183 -316 265 -443 199 -306 245 -375 280 -416 20 -25 48 -67 60
-95 29 -64 99 -296 120 -399 8 -43 22 -90 29 -105 7 -14 28 -69 46 -121 18
-52 40 -108 50 -125 10 -16 27 -57 38 -90 11 -33 48 -129 81 -214 72 -182 87
-253 72 -343 -31 -192 -43 -250 -61 -313 -11 -38 -29 -107 -40 -153 -11 -45
-28 -99 -38 -119 l-19 -36 -5 92 c-4 61 -11 97 -21 109 -8 9 -24 40 -36 67
-31 69 -121 303 -121 312 0 4 -18 55 -39 113 -21 58 -53 160 -71 225 -45 170
-97 339 -126 415 -47 123 -73 146 -34 30 11 -32 40 -139 66 -237 73 -284 92
-351 136 -473 71 -200 109 -292 153 -381 60 -117 66 -177 31 -282 -74 -219
-283 -595 -439 -788 l-28 -34 7 30 c4 17 20 71 36 120 16 50 31 115 34 145 2
30 9 91 15 135 11 77 10 84 -21 189 -46 160 -122 331 -302 686 -282 554 -291
570 -304 557 -14 -14 32 -111 342 -728 155 -306 225 -455 238 -506 7 -27 13
-98 13 -160 1 -62 4 -126 8 -142 14 -64 -189 -605 -307 -818 -43 -78 -82 -153
-88 -165 -5 -13 -21 -41 -35 -63 -25 -39 -26 -39 -21 -10 3 17 8 53 11 80 3
28 12 82 20 120 28 141 75 497 75 567 0 81 -20 133 -84 229 -20 30 -36 58 -36
62 0 5 -15 34 -34 65 -19 32 -87 152 -151 267 -65 116 -121 215 -125 220 -4 6
-72 123 -150 260 -157 275 -226 385 -240 385 -10 0 12 -63 29 -84 5 -6 69
-119 144 -251 74 -132 165 -289 201 -350 37 -60 106 -186 153 -280 47 -93 112
-215 143 -270 130 -227 136 -252 97 -445 -14 -69 -29 -145 -32 -170 -4 -25
-17 -106 -30 -180 -12 -74 -28 -174 -35 -223 -7 -48 -17 -90 -22 -93 -5 -4 -7
-20 -4 -38 l6 -31 -94 -3 c-104 -3 -148 -16 -187 -59 -42 -44 -49 -67 -49
-148 0 -137 76 -224 197 -226 42 0 45 -1 23 -10 -42 -17 -134 8 -189 51 -114
91 -208 263 -233 429 -14 88 -15 157 -6 481 5 178 12 259 28 335 55 267 26
662 -62 827 -67 126 -192 219 -274 202 l-29 -5 -1 208 c-1 301 -16 452 -53
528 -40 82 -93 141 -154 171 -44 23 -60 26 -129 22 l-78 -3 0 85 c0 205 -91
362 -227 390 -68 14 -149 6 -188 -20 l-29 -19 -37 34 c-46 42 -107 59 -174 50
-120 -15 -194 -84 -283 -260 -121 -243 -191 -432 -266 -725 -78 -305 -90 -382
-91 -585 0 -199 9 -245 67 -337 l30 -47 -27 -35 c-33 -43 -74 -75 -145 -112
-49 -25 -65 -29 -137 -28 -61 1 -90 6 -110 19 l-26 18 47 18 c58 22 82 42 106
89 27 54 32 87 24 163 -6 60 -12 76 -35 99 -15 16 -42 31 -59 35 -31 6 -32 7
-25 47 3 23 9 222 11 442 l6 402 39 5 c62 8 183 71 231 119 50 50 128 203 154
299 13 51 15 90 11 194 -10 206 -56 347 -146 444 -23 24 -41 47 -41 51 0 4 22
54 49 111 70 150 224 537 262 659 33 107 38 173 39 490 l0 45 36 -85 c19 -47
39 -94 44 -105 l9 -20 0 20 c2 39 -50 206 -78 253 -38 64 -145 216 -195 277
-237 289 -752 789 -930 903 -233 149 -495 357 -595 471 -60 69 -81 75 -31 9
102 -133 308 -311 558 -483 63 -43 153 -114 200 -159 48 -45 137 -125 197
-178 233 -204 622 -631 677 -743 48 -97 73 -377 48 -534 -13 -79 -68 -254 -84
-263 -41 -26 -533 -521 -599 -602 -99 -124 -169 -264 -188 -379 -12 -71 -11
-85 9 -170 12 -50 37 -144 57 -207 24 -79 37 -145 41 -210 l7 -95 47 -47 c28
-29 60 -50 79 -54 l31 -6 0 -343 c0 -258 -4 -373 -16 -462 -19 -140 -69 -340
-92 -366 -40 -45 -6 -148 66 -204 47 -35 130 -50 229 -40 71 7 189 74 252 143
l46 50 50 -25 c41 -21 63 -26 126 -26 l76 1 5 -114 c5 -111 7 -117 49 -201 85
-166 213 -260 316 -232 53 15 51 16 59 -37 18 -124 108 -276 181 -304 65 -26
142 -40 177 -34 19 4 59 20 90 36 31 17 60 30 66 30 5 0 10 -14 10 -31 0 -43
93 -135 183 -179 58 -29 74 -32 120 -27 81 9 154 35 192 69 43 37 97 132 122
213 l18 60 6 -255 c7 -295 19 -353 97 -505 50 -95 140 -198 200 -229 51 -26
135 -39 179 -26 59 17 104 60 108 106 38 408 33 381 76 431 15 17 40 60 55 95
16 35 71 149 124 253 57 114 111 237 134 309 25 76 46 124 60 135 119 92 251
283 402 580 49 97 79 146 91 147 10 2 23 10 28 20 6 9 29 43 52 74 57 80 68
102 93 205 12 50 30 119 40 155 11 36 29 128 41 205 19 125 20 149 9 230 -7
50 -19 108 -28 130 -39 100 -166 394 -184 425 -11 19 -29 56 -39 83 -17 42
-17 50 -5 70 8 12 26 81 40 152 14 72 35 159 47 195 18 54 23 95 26 245 4 160
2 195 -20 321 l-26 141 93 179 c199 385 403 729 552 931 161 218 481 681 613
888 128 200 225 384 321 609 23 54 40 100 37 102 -6 6 -81 -126 -180 -316 -74
-145 -157 -280 -336 -545 -73 -110 -384 -546 -493 -692 -54 -73 -117 -163
-139 -200 -23 -38 -69 -113 -104 -168 -87 -140 -263 -469 -323 -604 -40 -90
-52 -109 -55 -90 -22 114 -37 216 -41 281 -5 86 -20 131 -30 88 -22 -107 -4
-343 49 -640 23 -132 20 -376 -6 -476 -39 -149 -59 -248 -59 -298 -1 -68 -13
-43 -34 69 -35 184 -103 374 -167 467 -23 34 -63 98 -89 142 -96 164 -174 293
-220 361 -64 95 -168 264 -256 415 -40 69 -104 177 -142 240 -62 103 -73 128
-101 242 -17 69 -41 155 -55 191 -13 35 -36 115 -51 178 -29 119 -76 224 -137
301 -18 23 -89 101 -158 173 -69 71 -136 142 -148 156 l-23 26 86 124 c48 68
130 194 183 279 53 85 117 185 143 221 46 64 199 308 252 399 28 50 176 370
230 500 20 47 54 130 78 185 48 116 76 194 89 249 11 48 0 36 -28 -29 -11 -27
-41 -93 -65 -145 -25 -52 -57 -122 -70 -155 -14 -33 -84 -179 -155 -325 -101
-207 -155 -301 -241 -430 -62 -91 -168 -248 -236 -350 -151 -225 -254 -373
-293 -420 l-29 -34 -73 59 c-114 93 -206 206 -309 381 -186 313 -367 566 -617
860 -127 150 -367 472 -503 674 -57 85 -100 144 -96 130z m-206 -4406 c-39
-93 -86 -199 -105 -236 l-34 -67 -49 30 c-36 23 -55 29 -72 24 -22 -7 -22 -8
-3 -21 138 -94 199 -154 243 -242 59 -117 89 -378 57 -502 -22 -88 -97 -239
-138 -279 -53 -53 -151 -96 -226 -98 -128 -3 -155 25 -170 172 -7 71 -25 148
-62 265 -58 182 -73 293 -50 352 30 73 104 190 180 281 91 109 493 512 498
499 1 -5 -29 -85 -69 -178z m691 -729 c30 -16 60 -61 60 -91 0 -11 -14 -1 -40
29 -43 49 -95 73 -136 63 -43 -11 -102 -74 -124 -132 -24 -66 -25 -102 -4
-132 30 -44 126 -72 177 -53 15 6 27 9 27 7 0 -2 -13 -35 -29 -74 -70 -169
-181 -560 -196 -688 -3 -27 -12 -86 -20 -131 -32 -170 -47 -325 -54 -528 l-6
-210 -35 -3 c-99 -10 -197 43 -255 139 -45 73 -64 150 -71 284 -6 94 -2 130
21 250 35 185 116 497 169 654 46 135 175 453 208 511 22 40 93 97 135 110 47
14 142 11 173 -5z m-34 -34 c17 -10 40 -38 52 -61 l21 -42 -31 -62 c-25 -51
-38 -66 -69 -79 -76 -33 -179 10 -179 74 0 55 56 141 110 170 45 23 58 23 96
0z m344 10 c109 -22 190 -189 190 -393 0 -53 -3 -60 -35 -90 -31 -30 -40 -51
-84 -208 -55 -196 -100 -410 -161 -765 -23 -132 -50 -287 -60 -345 -11 -58
-27 -166 -35 -240 -13 -116 -45 -410 -45 -417 0 -8 -90 -1 -124 8 -57 16 -143
106 -188 199 -64 129 -71 182 -64 444 4 126 16 294 26 375 19 149 73 461 89
516 5 16 22 84 37 150 48 207 221 684 265 731 37 40 101 51 189 35z m436 -490
c44 -20 126 -109 144 -156 18 -45 33 -385 27 -595 -5 -187 -13 -255 -47 -410
-10 -47 -21 -119 -25 -160 -7 -76 -24 -162 -89 -455 -63 -279 -98 -382 -157
-456 -37 -47 -133 -99 -183 -99 -48 0 -145 39 -185 75 -39 34 -82 122 -106
214 -15 58 -15 71 -1 140 8 42 26 159 40 261 15 102 35 235 46 295 68 369 112
623 111 640 0 28 64 327 98 455 30 111 50 155 94 202 60 64 155 84 233 49z
m321 -922 c47 -23 115 -94 143 -149 28 -56 68 -207 81 -305 7 -57 9 -147 5
-245 -6 -150 -26 -291 -38 -260 -3 8 -8 -12 -12 -45 -11 -100 -75 -343 -119
-454 -48 -121 -57 -128 -186 -138 -73 -5 -82 -4 -132 23 -76 41 -155 120 -168
168 -9 33 -7 43 9 65 36 51 70 144 101 275 16 72 55 232 85 356 30 124 54 248
54 275 0 72 10 83 48 55 25 -18 49 -24 109 -28 95 -5 149 13 159 53 21 82 -48
254 -124 312 -34 26 -53 33 -88 33 -41 0 -53 8 -37 23 13 14 68 7 110 -14z
m21 -94 c54 -62 106 -220 83 -255 -14 -20 -176 -26 -210 -8 -47 25 -50 42 -30
183 9 72 18 131 18 132 1 1 11 3 24 5 38 6 76 -12 115 -57z m-2068 -132 c29
-26 30 -33 32 -108 2 -65 -2 -88 -20 -122 -22 -43 -64 -80 -115 -101 -27 -12
-29 -10 -43 24 -13 31 -13 38 -1 53 8 9 24 57 37 106 12 50 27 109 33 133 13
51 33 55 77 15z m2796 -1633 c18 -18 -23 -327 -48 -357 -14 -17 -83 -16 -116
1 -31 16 -74 61 -91 93 -6 12 -11 56 -11 98 0 114 33 153 140 166 87 10 115
10 126 -1z"/>
<path d="M2212 5005 c-58 -18 -111 -60 -129 -103 -16 -39 -10 -134 13 -212 8
-25 14 -57 14 -72 0 -35 60 -78 107 -78 46 0 103 54 139 132 23 51 29 76 28
133 0 78 -20 126 -74 183 -35 36 -37 36 -98 17z m93 -42 c28 -32 55 -110 55
-159 0 -62 -57 -187 -100 -221 -24 -19 -67 -15 -93 10 -26 23 -59 136 -72 242
-6 48 -5 51 33 88 38 37 96 66 135 67 10 0 29 -12 42 -27z"/>
<path d="M2710 3900 c0 -11 12 -49 26 -85 30 -74 80 -125 122 -125 l27 1 -30
13 c-45 19 -79 65 -110 146 -28 73 -35 83 -35 50z"/>
<path d="M3414 5120 c-28 -11 -58 -87 -78 -197 -15 -81 -15 -96 -2 -120 39
-75 167 -145 267 -145 72 0 91 14 110 80 29 103 1 240 -64 311 -46 50 -108 81
-161 80 -28 0 -60 -4 -72 -9z m109 -24 c97 -35 160 -131 172 -264 6 -67 4 -77
-17 -108 -13 -19 -33 -37 -45 -40 -53 -14 -224 54 -265 106 -23 28 -21 75 8
201 26 113 58 136 147 105z"/>
<path d="M3060 3284 c0 -33 110 -116 179 -134 66 -17 71 3 6 24 -31 9 -85 39
-120 66 -36 27 -65 47 -65 44z"/>
<path d="M3814 4631 c-35 -21 -56 -66 -80 -173 -16 -70 -15 -178 1 -220 11
-27 143 -88 218 -101 112 -19 122 -11 147 124 24 132 -41 305 -139 371 -35 24
-108 23 -147 -1z m146 -47 c71 -65 109 -182 110 -340 0 -55 -2 -62 -24 -72
-34 -15 -155 11 -236 51 l-65 33 3 69 c4 97 31 221 55 252 43 54 102 57 157 7z"/>
<path d="M4907 7493 c-8 -7 31 -53 45 -53 4 0 46 -18 93 -41 47 -22 90 -37 95
-34 22 14 -14 45 -102 89 -91 45 -118 53 -131 39z"/>
<path d="M5445 7096 c33 -36 114 -124 180 -194 66 -70 138 -149 159 -176 50
-61 58 -46 14 26 -44 72 -323 364 -373 390 l-40 21 60 -67z"/>
<path d="M5200 5979 c1 -34 77 -168 145 -254 17 -22 44 -61 59 -87 15 -27 28
-48 30 -48 11 0 -19 90 -40 120 -13 19 -62 91 -109 159 -47 68 -85 118 -85
110z"/>
<path d="M4750 5514 c0 -5 18 -31 40 -59 25 -31 48 -76 61 -118 19 -62 39 -96
39 -65 0 29 -29 120 -48 150 -24 38 -92 107 -92 92z"/>
<path d="M4173 4933 c27 -35 59 -88 74 -119 28 -63 40 -66 24 -6 -14 52 -67
128 -111 161 -34 25 -33 25 13 -36z"/>
<path d="M5922 3641 c-12 -27 -47 -71 -76 -100 -61 -57 -60 -66 1 -22 47 34
103 115 103 148 0 13 -1 23 -2 23 -2 -1 -13 -23 -26 -49z"/>
<path d="M5526 3147 c-16 -29 -52 -74 -80 -101 -36 -35 -42 -44 -21 -31 50 30
81 64 110 121 36 70 28 79 -9 11z"/>
<path d="M5173 2829 c-21 -50 -122 -113 -278 -176 -52 -20 -55 -23 -23 -19 60
8 226 86 275 130 35 32 44 46 41 66 l-4 25 -11 -26z"/>
</g>
</svg>
